<?xml version="1.0" encoding="utf-8"?>
<!-- Generator: Adobe Illustrator 27.5.0, SVG Export Plug-In . SVG Version: 6.00 Build 0)  -->
<svg version="1.1" xmlns="http://www.w3.org/2000/svg" xmlns:xlink="http://www.w3.org/1999/xlink" x="0px" y="0px"
	 viewBox="0 0 500 500" style="enable-background:new 0 0 500 500;" xml:space="preserve">
<g id="Background_Complete">
	<g>
		<g>
			<g>
				<g>
					<g>
						<path style="fill:#F5F5F5;" d="M397.51,463.685c-26.155-10.353-38.147-38.241-43.463-64.605
							c-0.888-4.401-2.459-8.889-1.291-13.213c1.169-4.322,5.393-8.09,9.738-7.177c3.604,0.757,5.912,4.193,8.465,6.882
							c3.397,3.578,7.807,6.159,12.559,7.351c3.122,0.783,6.771,0.849,9.156-1.315c3.273-2.971,2.483-8.279,1.426-12.615
							c-1.971-8.081-3.94-16.162-5.911-24.241c-1.057-4.335-2.121-8.766-1.749-13.207c0.373-4.441,2.449-8.977,6.305-11.114
							c3.857-2.137,9.53-0.967,11.41,3.076c0.783,1.682,0.858,3.604,1.406,5.377c0.548,1.774,1.861,3.569,3.692,3.665
							c1.854,0.098,3.299-1.545,4.296-3.124c3.442-5.447,5.143-11.816,6.653-18.107c1.51-6.291,2.905-12.695,5.837-18.441
							c2.932-5.746,7.658-10.87,13.793-12.697c6.136-1.827,13.671,0.439,16.691,6.171c3.028,5.748,0.93,12.805-1.781,18.682
							c-4.022,8.719-9.3,16.839-15.617,24.023c-1.138,1.296-2.373,2.698-2.515,4.43c-0.256,3.118,3.168,5.343,6.252,5.616
							c3.492,0.31,6.924-0.859,10.404-1.263c3.48-0.405,7.502,0.219,9.542,3.115c2.831,4.016,0.223,9.549-2.706,13.461
							c-5.865,7.836-13.073,14.636-21.208,20.013c-2.917,1.927-6.035,3.749-8.078,6.604c-2.043,2.856-2.672,7.127-0.391,9.815
							c2.284,2.693,6.51,2.724,9.708,1.309c3.197-1.413,5.762-3.94,8.665-5.9c5.432-3.668,13.236-5.084,18.281-0.834
							c3.316,2.794,4.657,7.462,4.345,11.804c-0.311,4.342-2.063,8.434-4.037,12.293c-6.902,13.489-17.002,25.426-29.707,33.51
							C424.977,461.112,412.459,465.453,397.51,463.685"/>
					</g>
				</g>
			</g>
		</g>
		<g>
			<g>
				<g>
					<g>
						<g>
							<path style="fill:#E0E0E0;" d="M400.372,445.689c0.718-14.112,2.789-29.516,5.508-45.552
								c0.695-4.006,1.381-7.965,2.057-11.866c0.684-3.893,1.362-7.754,2.259-11.489c1.761-7.48,4.025-14.537,6.383-21.168
								c2.355-6.635,4.833-12.845,7.191-18.635c2.373-5.787,4.685-11.14,7.001-15.928c4.602-9.599,9.223-16.887,12.598-21.76
								c1.682-2.444,3.05-4.296,3.994-5.54c0.456-0.592,0.813-1.057,1.082-1.407c0.248-0.313,0.38-0.47,0.391-0.461
								c0.012,0.009-0.098,0.182-0.323,0.513c-0.253,0.362-0.589,0.843-1.017,1.456c-0.899,1.275-2.224,3.156-3.864,5.624
								c-3.289,4.923-7.816,12.232-12.338,21.835c-2.276,4.791-4.553,10.144-6.893,15.934c-2.329,5.797-4.78,12.007-7.111,18.632
								c-2.332,6.622-4.57,13.658-6.31,21.098c-0.886,3.716-1.555,7.543-2.238,11.446c-0.675,3.899-1.359,7.856-2.053,11.86
								c-2.716,16.024-4.803,31.387-5.562,45.454"/>
						</g>
					</g>
				</g>
			</g>
		</g>
		<g>
			<g>
				<g>
					<g>
						<g>
							<path style="fill:#E0E0E0;" d="M410.416,376.696c-0.052,0.021-0.356-0.603-0.863-1.752c-0.513-1.146-1.199-2.827-2.017-4.918
								c-1.639-4.177-3.706-10.024-5.961-16.478c-2.255-6.458-4.4-12.258-6.098-16.399c-0.844-2.073-1.543-3.744-2.042-4.892
								c-0.492-1.152-0.741-1.802-0.69-1.828c0.051-0.025,0.396,0.577,0.978,1.69c0.588,1.109,1.372,2.749,2.285,4.8
								c1.842,4.097,4.082,9.89,6.339,16.354c2.209,6.375,4.206,12.142,5.732,16.549c0.702,1.987,1.295,3.66,1.771,5.003
								C410.264,376.009,410.47,376.674,410.416,376.696z"/>
						</g>
					</g>
				</g>
			</g>
		</g>
		<g>
			<g>
				<g>
					<g>
						<g>
							<path style="fill:#E0E0E0;" d="M463.767,353.021c0.015,0.055-0.758,0.336-2.163,0.795c-1.402,0.467-3.435,1.132-5.919,2.035
								c-4.982,1.764-11.779,4.443-19.148,7.727c-7.366,3.298-13.905,6.566-18.566,9.066c-2.341,1.234-4.207,2.284-5.502,3.001
								c-1.292,0.723-2.021,1.1-2.052,1.051c-0.03-0.05,0.644-0.52,1.888-1.33c1.248-0.804,3.075-1.934,5.386-3.239
								c4.602-2.639,11.123-6.002,18.51-9.311c7.391-3.292,14.248-5.895,19.294-7.522c2.517-0.834,4.582-1.417,6.018-1.789
								C462.95,353.141,463.75,352.965,463.767,353.021z"/>
						</g>
					</g>
				</g>
			</g>
		</g>
		<g>
			<g>
				<g>
					<g>
						<g>
							<path style="fill:#E0E0E0;" d="M400.814,444.499c-0.023,0.017-0.209-0.186-0.544-0.59c-0.388-0.485-0.861-1.077-1.434-1.793
								c-1.238-1.563-2.971-3.871-5.074-6.75c-4.21-5.756-9.776-13.891-15.796-22.95c-6.024-9.063-11.506-17.238-15.59-23.073
								c-1.995-2.835-3.638-5.166-4.858-6.899c-0.525-0.753-0.957-1.374-1.312-1.885c-0.292-0.436-0.435-0.673-0.413-0.692
								c0.023-0.016,0.209,0.187,0.545,0.591c0.388,0.485,0.86,1.075,1.433,1.792c1.238,1.563,2.971,3.87,5.074,6.75
								c4.21,5.756,9.776,13.891,15.798,22.954c6.022,9.06,11.504,17.234,15.588,23.071c1.996,2.833,3.637,5.166,4.857,6.897
								c0.525,0.753,0.957,1.376,1.312,1.885C400.694,444.244,400.837,444.481,400.814,444.499z"/>
						</g>
					</g>
				</g>
			</g>
		</g>
		<g>
			<g>
				<g>
					<g>
						<g>
							<path style="fill:#E0E0E0;" d="M469.326,402.993c0.013,0.025-0.216,0.189-0.664,0.478c-0.534,0.332-1.189,0.739-1.983,1.233
								c-1.837,1.117-4.316,2.625-7.333,4.458c-6.191,3.767-14.682,9.066-24.057,14.935c-9.377,5.872-17.926,11.099-24.197,14.737
								c-3.135,1.821-5.686,3.268-7.47,4.232c-0.826,0.44-1.507,0.802-2.06,1.098c-0.476,0.243-0.733,0.358-0.747,0.333
								c-0.013-0.025,0.216-0.189,0.664-0.479c0.533-0.33,1.188-0.737,1.983-1.232c1.837-1.117,4.315-2.624,7.332-4.458
								c6.191-3.766,14.684-9.067,24.061-14.938c9.374-5.87,17.922-11.096,24.193-14.735c3.135-1.821,5.686-3.268,7.471-4.232
								c0.826-0.44,1.505-0.803,2.06-1.098C469.055,403.083,469.311,402.969,469.326,402.993z"/>
						</g>
					</g>
				</g>
			</g>
		</g>
	</g>
	<g>
		<g>
			
				<rect x="70.412" y="151.465" transform="matrix(0.1907 -0.9817 0.9817 0.1907 -114.3699 268.1682)" style="fill:#EBEBEB;" width="70.072" height="103.959"/>
		</g>
		<g>
			<g>
				<g>
					<path style="fill:#E0E0E0;" d="M163.32,179.853c0.016,0.028-0.373,0.279-1.128,0.731c-0.839,0.489-1.944,1.133-3.325,1.938
						c-2.998,1.698-7.184,4.069-12.324,6.98c-10.535,5.862-24.956,13.887-40.928,22.775l-0.337,0.188l-0.251-0.295
						c-0.191-0.225-0.399-0.468-0.606-0.712c-11.947-14.119-22.759-26.897-30.664-36.239c-3.839-4.607-6.969-8.363-9.21-11.052
						c-1.025-1.262-1.846-2.271-2.467-3.036c-0.556-0.701-0.836-1.079-0.811-1.1c0.025-0.021,0.353,0.316,0.956,0.977
						c0.656,0.736,1.521,1.707,2.602,2.921c2.296,2.641,5.504,6.331,9.438,10.857c7.959,9.296,18.845,22.01,30.874,36.06
						c0.208,0.244,0.415,0.488,0.606,0.712l-0.587-0.107c16.026-8.792,30.494-16.73,41.064-22.53
						c5.2-2.802,9.436-5.085,12.468-6.719c1.417-0.741,2.55-1.334,3.41-1.784C162.885,180.02,163.304,179.824,163.32,179.853z"/>
				</g>
			</g>
		</g>
		<g>
			<g>
				<path style="fill:#E0E0E0;" d="M47.908,228.818c-0.164-0.203,9.342-8.141,21.229-17.729
					c11.891-9.591,21.66-17.199,21.823-16.996c0.163,0.203-9.34,8.139-21.231,17.73C57.842,221.411,48.071,229.02,47.908,228.818z"
					/>
			</g>
		</g>
		<g>
			<g>
				<path style="fill:#E0E0E0;" d="M125.049,199.822c0.232-0.118,5.997,10.715,12.875,24.193
					c6.88,13.483,12.268,24.506,12.036,24.625c-0.232,0.118-5.996-10.712-12.876-24.196
					C130.206,210.965,124.817,199.94,125.049,199.822z"/>
			</g>
		</g>
	</g>
	<g>
		<g>
			<polygon style="fill:#F5F5F5;" points="204.294,145.346 139.777,152.103 134.467,107.28 198.983,100.523 			"/>
		</g>
		<g>
			<g>
				<g>
					<path style="fill:#E0E0E0;" d="M199.253,101.04c0.015,0.015-0.168,0.241-0.53,0.66c-0.405,0.457-0.938,1.058-1.604,1.81
						c-1.456,1.602-3.489,3.839-5.984,6.586c-5.136,5.566-12.166,13.184-19.953,21.622l-0.164,0.178l-0.206-0.135
						c-0.157-0.103-0.327-0.214-0.498-0.326c-9.827-6.472-18.72-12.328-25.222-16.61c-3.171-2.123-5.757-3.853-7.607-5.092
						c-0.853-0.586-1.536-1.055-2.053-1.41c-0.466-0.328-0.705-0.509-0.695-0.526c0.011-0.018,0.271,0.129,0.757,0.424
						c0.532,0.331,1.233,0.768,2.111,1.314c1.875,1.199,4.493,2.875,7.706,4.93c6.525,4.243,15.45,10.047,25.312,16.461
						c0.17,0.112,0.341,0.223,0.498,0.326l-0.37,0.043c7.837-8.389,14.912-15.963,20.081-21.496
						c2.553-2.691,4.632-4.883,6.121-6.452c0.7-0.719,1.26-1.295,1.684-1.731C199.027,101.224,199.239,101.026,199.253,101.04z"/>
				</g>
			</g>
		</g>
		<g>
			<g>
				<path style="fill:#E0E0E0;" d="M140.048,152.62c-0.137-0.094,3.987-6.747,9.209-14.857c5.224-8.112,9.568-14.61,9.704-14.516
					c0.136,0.094-3.986,6.745-9.21,14.858C144.529,146.216,140.184,152.715,140.048,152.62z"/>
			</g>
		</g>
		<g>
			<g>
				<path style="fill:#E0E0E0;" d="M180.34,120.441c0.115-0.116,5.632,5.481,12.32,12.5c6.69,7.021,12.019,12.805,11.904,12.922
					c-0.115,0.116-5.631-5.48-12.321-12.501C185.554,126.343,180.225,120.558,180.34,120.441z"/>
			</g>
		</g>
	</g>
	<g>
		<g>
			<polygon style="fill:#F5F5F5;" points="114.899,91.022 79.246,66.334 96.086,41.296 131.739,65.984 			"/>
		</g>
		<g>
			<g>
				<g>
					<path style="fill:#E0E0E0;" d="M131.651,66.364c0.001,0.014-0.19,0.049-0.556,0.104c-0.404,0.055-0.937,0.128-1.602,0.219
						c-1.436,0.178-3.442,0.426-5.904,0.731c-5.029,0.584-11.913,1.382-19.538,2.267l-0.161,0.019l-0.046-0.158
						c-0.035-0.12-0.073-0.251-0.11-0.382c-2.162-7.563-4.118-14.408-5.549-19.412c-0.683-2.458-1.24-4.462-1.638-5.897
						c-0.177-0.669-0.319-1.204-0.426-1.609c-0.093-0.369-0.136-0.565-0.123-0.57c0.013-0.004,0.081,0.183,0.199,0.545
						c0.125,0.4,0.291,0.927,0.497,1.586c0.428,1.425,1.026,3.416,1.759,5.857c1.459,4.995,3.455,11.826,5.66,19.376
						c0.038,0.131,0.076,0.261,0.11,0.382l-0.206-0.139c7.629-0.838,14.517-1.595,19.548-2.147c2.467-0.252,4.476-0.457,5.915-0.604
						c0.668-0.06,1.203-0.108,1.608-0.144C131.456,66.358,131.65,66.35,131.651,66.364z"/>
				</g>
			</g>
		</g>
		<g>
			<g>
				<path style="fill:#E0E0E0;" d="M79.157,66.714c-0.028-0.107,4.962-1.683,11.143-3.519c6.183-1.837,11.217-3.238,11.245-3.131
					c0.028,0.107-4.96,1.683-11.144,3.519C84.22,65.42,79.185,66.821,79.157,66.714z"/>
			</g>
		</g>
		<g>
			<g>
				<path style="fill:#E0E0E0;" d="M113.608,67.958c0.109-0.009,0.467,5.233,0.799,11.706c0.332,6.475,0.513,11.73,0.404,11.738
					c-0.109,0.008-0.467-5.232-0.799-11.707C113.68,73.222,113.499,67.967,113.608,67.958z"/>
			</g>
		</g>
	</g>
	<g>
		<path style="fill:#F5F5F5;" d="M401.464,123.869c0-24.474-22.118-43.783-47.456-39.027c-15.938,2.991-28.638,16.007-31.43,31.981
			c-1.745,9.984,0.316,19.377,4.87,27.129h-0.022l0.113,0.15c1.524,2.569,3.434,4.406,5.363,7.104l23.08,30.574
			c2.872,3.805,8.586,3.804,11.458,0l22.696-30.069c0,0,4.236-5.052,5.773-7.649l0.082-0.109h-0.016
			C399.443,138.053,401.464,131.205,401.464,123.869z M361.713,141.177c-9.662,0-17.494-7.833-17.494-17.494
			c0-9.662,7.832-17.494,17.494-17.494c9.662,0,17.494,7.832,17.494,17.494C379.207,133.344,371.375,141.177,361.713,141.177z"/>
	</g>
	<g>
		<path style="fill:#EBEBEB;" d="M431.861,192.089c0-13.198-11.927-23.61-25.591-21.045c-8.594,1.613-15.443,8.632-16.948,17.245
			c-0.941,5.384,0.17,10.449,2.626,14.629h-0.012l0.061,0.081c0.822,1.385,1.852,2.376,2.892,3.831l12.446,16.487
			c1.549,2.052,4.63,2.051,6.179,0l12.239-16.215c0,0,2.284-2.724,3.113-4.125l0.044-0.059h-0.009
			C430.771,199.738,431.861,196.045,431.861,192.089z M410.425,201.422c-5.21,0-9.434-4.224-9.434-9.434
			c0-5.21,4.224-9.434,9.434-9.434c5.21,0,9.434,4.224,9.434,9.434C419.858,197.199,415.635,201.422,410.425,201.422z"/>
	</g>
</g>
<g id="Background_Simple" style="display:none;">
	<path style="display:inline;fill:#EBEBEB;" d="M443.726,173.605c-2.038-33.402-18.413-69.182-42.021-92.898
		c-19.264-19.352-47.147-29.604-74.404-27.966c-23.051,1.385-45.626,11.168-61.899,27.552
		c-14.142,14.239-23.124,32.643-33.832,49.615c-10.709,16.973-24.354,33.499-43.271,40.199c-18.444,6.532-38.749,2.691-58.274,3.959
		c-25.671,1.666-50.772,12.751-68.684,31.214c-17.912,18.463-28.286,44.243-27.303,69.949c0.992,25.928,13.126,50.518,29.89,70.323
		c0.168,0.198,0.336,0.397,0.504,0.597c34.549,41.072,84.806,65.691,138.443,67.564l61.067,2.133
		c50.322,9.095,103.754-31.643,135.814-71.483C431.815,304.523,446.841,224.648,443.726,173.605z"/>
</g>
<g id="Floor">
	<g>
		<path style="fill:#263238;" d="M471.369,463.774c0,0.144-99.118,0.26-221.358,0.26c-122.283,0-221.38-0.116-221.38-0.26
			c0-0.144,99.097-0.26,221.38-0.26C372.251,463.513,471.369,463.63,471.369,463.774z"/>
	</g>
</g>
<g id="Character">
	<g>
		<g>
			<g>
				<g>
					<g>
						<g>
							<g>
								<g>
									<g>
										<g>
											<g>
												<g>
													<g>
														<g>
															<g>
																<g>
																	<g>
																		<g>
																			<g>
																				<path style="fill:#B78876;" d="M189.35,118.938l6.579,93.204c1.074,15.217,13.732,27.013,28.987,27.013l0,0
																					c16.795,0,30.1-14.201,28.997-30.96c-0.583-8.872-1.111-16.136-1.111-16.136s22.564-3.508,22.842-26.068
																					c0.161-13.03-2.086-42.598-4.013-65.251c-1.302-15.314-14.122-27.069-29.491-27.069h-13.628
																					C205.042,75.042,187.331,95.514,189.35,118.938z"/>
																			</g>
																		</g>
																	</g>
																</g>
															</g>
														</g>
													</g>
												</g>
											</g>
											<g>
												<g>
													<g>
														<g>
															<g>
																<g>
																	<g>
																		<g>
																			<g>
																				<path style="fill:#AA6550;" d="M252.84,191.733c0,0-14.258,1.16-29.411-8.359c0,0,6.952,16.236,29.464,14.204
																					L252.84,191.733z"/>
																			</g>
																		</g>
																	</g>
																</g>
															</g>
														</g>
													</g>
												</g>
											</g>
										</g>
									</g>
								</g>
								<g>
									<g>
										<g>
											<g>
												<g>
													<g>
														<g>
															<g>
																<g>
																	<g>
																		<g>
																			<g>
																				<g>
																					<g>
																						<g>
																							<path style="fill:#263238;" d="M264.616,127.991c0.06,1.701-1.331,3.155-3.107,3.251
																								c-1.772,0.095-3.261-1.203-3.321-2.905c-0.06-1.701,1.33-3.157,3.103-3.252
																								C263.067,124.988,264.556,126.29,264.616,127.991z"/>
																						</g>
																					</g>
																				</g>
																			</g>
																		</g>
																	</g>
																</g>
															</g>
														</g>
														<g>
															<g>
																<g>
																	<g>
																		<g>
																			<g>
																				<g>
																					<g>
																						<g>
																							<g>
																								<path style="fill:#263238;" d="M267.744,123.363c-0.4,0.42-2.84-1.386-6.307-1.377
																									c-3.463-0.041-6.007,1.743-6.383,1.318c-0.185-0.188,0.222-0.946,1.33-1.753
																									c1.09-0.803,2.951-1.584,5.11-1.575c2.16,0.012,3.977,0.807,5.021,1.62
																									C267.579,122.415,267.94,123.175,267.744,123.363z"/>
																							</g>
																						</g>
																					</g>
																				</g>
																			</g>
																		</g>
																	</g>
																</g>
															</g>
														</g>
													</g>
													<g>
														<g>
															<g>
																<g>
																	<g>
																		<g>
																			<g>
																				<g>
																					<g>
																						<g>
																							<path style="fill:#263238;" d="M230.789,127.991c0.06,1.701-1.331,3.155-3.106,3.25
																								c-1.772,0.095-3.261-1.203-3.321-2.905c-0.06-1.701,1.331-3.157,3.104-3.252
																								C229.24,124.988,230.729,126.29,230.789,127.991z"/>
																						</g>
																					</g>
																				</g>
																			</g>
																		</g>
																	</g>
																</g>
															</g>
														</g>
														<g>
															<g>
																<g>
																	<g>
																		<g>
																			<g>
																				<g>
																					<g>
																						<g>
																							<g>
																								<path style="fill:#263238;" d="M233.666,124.01c-0.4,0.42-2.844-1.386-6.308-1.376
																									c-3.462-0.041-6.007,1.742-6.384,1.318c-0.184-0.188,0.219-0.946,1.331-1.752
																									c1.09-0.804,2.95-1.584,5.109-1.576c2.16,0.012,3.976,0.807,5.021,1.621
																									C233.498,123.062,233.861,123.822,233.666,124.01z"/>
																							</g>
																						</g>
																					</g>
																				</g>
																			</g>
																		</g>
																	</g>
																</g>
															</g>
														</g>
													</g>
													<g>
														<g>
															<g>
																<g>
																	<g>
																		<g>
																			<g>
																				<g>
																					<g>
																						<g>
																							<path style="fill:#263238;" d="M246.248,149.721c-0.016-0.197,2.139-0.569,5.631-1.016
																								c0.886-0.091,1.724-0.267,1.872-0.872c0.209-0.64-0.162-1.593-0.591-2.624
																								c-0.833-2.142-1.703-4.388-2.618-6.741c-3.636-9.598-6.267-17.49-5.88-17.633
																								c0.388-0.143,3.65,7.52,7.285,17.118c0.875,2.367,1.712,4.623,2.508,6.782
																								c0.334,1.006,0.911,2.147,0.459,3.474c-0.238,0.661-0.888,1.142-1.456,1.295
																								c-0.567,0.173-1.065,0.183-1.503,0.209C248.441,149.902,246.261,149.918,246.248,149.721z"/>
																						</g>
																					</g>
																				</g>
																			</g>
																		</g>
																	</g>
																</g>
															</g>
														</g>
													</g>
													<g>
														<g>
															<g>
																<g>
																	<g>
																		<g>
																			<g>
																				<g>
																					<g>
																						<g>
																							<path style="fill:#263238;" d="M236.045,152.119c0.564-0.033,0.571,3.73,3.792,6.401
																								c3.215,2.68,7.227,2.257,7.256,2.783c0.052,0.236-0.894,0.73-2.586,0.777
																								c-1.661,0.057-4.086-0.477-6.057-2.11c-1.965-1.638-2.81-3.824-2.938-5.368
																								C235.368,153.029,235.787,152.097,236.045,152.119z"/>
																						</g>
																					</g>
																				</g>
																			</g>
																		</g>
																	</g>
																</g>
															</g>
														</g>
													</g>
												</g>
											</g>
										</g>
										<g>
											<g>
												<g>
													<g>
														<g>
															<g>
																<g>
																	<g>
																		<g>
																			<path style="fill:#263238;" d="M234.561,110.424c-0.342,0.943-3.803,0.496-7.87,0.987
																				c-4.078,0.408-7.358,1.599-7.898,0.754c-0.241-0.405,0.331-1.291,1.658-2.204
																				c1.314-0.911,3.412-1.777,5.853-2.049c2.442-0.266,4.678,0.121,6.159,0.724
																				C233.956,109.236,234.708,109.977,234.561,110.424z"/>
																		</g>
																	</g>
																</g>
															</g>
														</g>
													</g>
												</g>
											</g>
										</g>
										<g>
											<g>
												<g>
													<g>
														<g>
															<g>
																<g>
																	<g>
																		<g>
																			<path style="fill:#263238;" d="M266.469,113.33c-0.61,0.787-2.998-0.03-5.87-0.068
																				c-2.87-0.139-5.303,0.529-5.863-0.294c-0.245-0.4,0.137-1.188,1.2-1.934c1.047-0.743,2.798-1.35,4.772-1.29
																				c1.974,0.063,3.684,0.776,4.683,1.583C266.405,112.135,266.738,112.946,266.469,113.33z"/>
																		</g>
																	</g>
																</g>
															</g>
														</g>
													</g>
												</g>
											</g>
										</g>
									</g>
								</g>
								<g>
									<g>
										<g>
											<g>
												<g>
													<g>
														<g>
															<g>
																<g>
																	<g>
																		<path style="fill:#B78876;" d="M196.956,135.871c-0.385-0.167-15.501-4.585-15.008,10.838
																			c0.493,15.424,15.875,11.748,15.888,11.304C197.849,157.571,196.956,135.871,196.956,135.871z"/>
																	</g>
																</g>
															</g>
														</g>
													</g>
												</g>
											</g>
										</g>
									</g>
									<g>
										<g>
											<g>
												<g>
													<g>
														<g>
															<g>
																<g>
																	<g>
																		<g>
																			<path style="fill:#AA6550;" d="M192.938,152.321c-0.07-0.047-0.263,0.197-0.711,0.419
																				c-0.436,0.217-1.193,0.381-2.007,0.105c-1.649-0.546-3.103-3.089-3.267-5.866
																				c-0.085-1.403,0.167-2.749,0.629-3.871c0.434-1.144,1.139-1.955,1.955-2.127c0.81-0.215,1.407,0.258,1.609,0.686
																				c0.22,0.425,0.132,0.736,0.215,0.76c0.045,0.037,0.323-0.269,0.179-0.902c-0.074-0.304-0.266-0.662-0.637-0.947
																				c-0.38-0.289-0.929-0.425-1.499-0.346c-1.186,0.12-2.222,1.249-2.73,2.481c-0.573,1.24-0.889,2.754-0.794,4.328
																				c0.198,3.104,1.882,5.962,4.132,6.535c1.094,0.248,1.988-0.108,2.444-0.486
																				C192.922,152.695,192.993,152.348,192.938,152.321z"/>
																		</g>
																	</g>
																</g>
															</g>
														</g>
													</g>
												</g>
											</g>
										</g>
									</g>
								</g>
							</g>
						</g>
						<g>
							<g>
								<g>
									<g>
										<g>
											<path style="fill:#263238;" d="M188.375,135.348c2.353-0.569,6.422,1.602,7.424,3.805
												c1.004,2.203,1.224,4.698,2.224,6.902c1,2.204,3.26,4.197,5.616,3.64c1.624-0.385,2.786-1.907,3.214-3.52
												c0.429-1.613,0.255-3.318,0.046-4.974c-0.909-7.203-2.423-14.346-2.713-21.6c-0.29-7.254,0.743-14.791,4.552-20.971
												c3.809-6.18,10.806-10.725,18.042-10.142c4.794,0.386,9.19,2.886,13.952,3.553c5.647,0.791,11.616-1.202,15.655-5.226
												c0.518-0.515,2.926-2.103,2.926-2.103c0-0.374-0.353-3.595-1.623-4.769c-9.448-8.737-26.471-11.176-38.951-8.035
												c-12.479,3.141-24.177,11.952-29.546,23.646C183.824,107.248,185.417,123.514,188.375,135.348"/>
										</g>
									</g>
								</g>
							</g>
						</g>
					</g>
				</g>
				<g>
					<g>
						<path style="fill:#E8505B;" d="M271.882,97.259c0,0-59.185-19.042-84.787,32.163c0,0-3.826-12.814-3.826-19.683
							c0-4.588,2.745-31.91,30.858-40.504C214.126,69.235,256.48,53.07,271.882,97.259z"/>
					</g>
				</g>
				<g>
					<g>
						<path style="fill:#263238;" d="M221.029,98.536c2.091,3.379,5.824,5.687,9.782,6.047c3.958,0.36,8.046-1.237,10.712-4.183
							c1.169,2.916,4.305,4.92,7.442,4.756c3.138-0.164,6.047-2.485,6.904-5.508c1.719,1.668,3.509,3.381,5.758,4.204
							c2.249,0.824,5.099,0.512,6.576-1.373c1.504-1.921,1.067-4.846-0.409-6.789s-3.748-3.099-5.999-4.039
							c-7.03-2.936-14.783-4.408-22.333-3.386c-7.55,1.022-14.863,4.683-19.581,10.664"/>
					</g>
				</g>
				<g style="opacity:0.4;">
					<g>
						<path d="M271.882,97.259c0,0-6.735-8.012-18.82-8.546c-17.458-0.771-50.135,9.045-65.967,40.709
							c0,0-3.826-12.814-3.826-19.683c0-4.588,2.745-31.91,30.858-40.504C214.126,69.235,256.48,53.07,271.882,97.259z"/>
					</g>
				</g>
				<g>
					<path style="fill:#E8505B;" d="M189.567,123.428c8.777-13.427,20.876-24.528,34.481-33.027
						c13.605-8.499,36.101-16.905,51.605-21.02c4.655-1.235,9.507-2.315,14.253-1.495c4.745,0.82,9.39,3.98,10.568,8.649
						c1.474,5.845-8.899,14.864-13.773,18.411c-4.874,3.546-14.818,8.749-14.818,8.749s0.133-10.841-17.218-13.077
						C231.063,87.577,189.567,123.428,189.567,123.428z"/>
				</g>
			</g>
			<path style="fill:#E0E0E0;" d="M238.107,79.202c0,0,8.528-4.718,17.092-5.817c-1.759-1.288-2.698-1.907-4.645-2.788
				c-4.381,0.871-8.822,1.983-13.32,4.479L238.107,79.202z"/>
		</g>
		<g>
			<g>
				<path style="fill:#E8505B;" d="M286.14,211.46l-18.772-4.136l-7.636-1.909l-6.363-9.863c0,0-3.034,17.628-14.391,27.119
					c-3.092,2.584-7.24,3.511-11.184,2.684c-2.574-0.54-5.593-1.207-7.832-1.804c-0.477-0.127-1.002-0.296-1.561-0.496
					c-8.262-2.966-15.016-9.028-19.327-16.675c-2.527-4.482-4.656-9.082-3.929-10.827l-8.909,18.453l-52.497,24.18l-29.806,72.782
					l57.765,17.086l1.798,59.97l-10.881,75.637l163.434,0.113l-5.795-168.293"/>
				<g>
					<path style="fill:#263238;" d="M243.89,276.607c-0.001,0.023-0.359,0.03-1.029,0.022c-0.733-0.017-1.703-0.04-2.906-0.068
						c-2.572-0.092-6.133-0.218-10.39-0.37l-0.204-0.007l-0.008-0.205c-0.176-4.51-0.385-9.849-0.609-15.562
						c-0.272-8.225-0.518-15.667-0.699-21.137c-0.063-2.654-0.115-4.826-0.152-6.408c-0.006-0.711-0.011-1.289-0.015-1.743
						c0.002-0.399,0.012-0.609,0.03-0.609c0.018-0.001,0.043,0.208,0.075,0.605c0.029,0.454,0.067,1.03,0.113,1.739
						c0.078,1.58,0.186,3.749,0.318,6.401c0.22,5.468,0.52,12.908,0.851,21.131c0.195,5.715,0.378,11.054,0.532,15.565l-0.212-0.212
						c4.254,0.228,7.811,0.418,10.382,0.556c1.201,0.079,2.169,0.142,2.901,0.19C243.535,276.544,243.891,276.583,243.89,276.607z"
						/>
				</g>
				<g>
					<path style="fill:#263238;" d="M234.982,252.298c-0.011-0.021,0.243-0.19,0.778-0.254c0.525-0.067,1.351,0.039,2.155,0.598
						c0.394,0.28,0.786,0.67,1.049,1.193c0.263,0.521,0.385,1.167,0.285,1.816c-0.179,1.283-1.157,2.63-2.671,3.014
						c-1.518,0.351-2.993-0.362-3.801-1.357c-0.856-1.018-0.945-2.316-0.717-3.232c0.223-0.943,0.702-1.591,1.08-1.955
						c0.384-0.368,0.656-0.488,0.67-0.464c0.026,0.036-0.202,0.211-0.521,0.601c-0.314,0.386-0.71,1.022-0.869,1.893
						c-0.163,0.855-0.039,1.983,0.724,2.85c0.726,0.86,2.039,1.459,3.311,1.159c1.263-0.313,2.146-1.479,2.319-2.581
						c0.211-1.135-0.386-2.125-1.078-2.641c-0.695-0.538-1.435-0.694-1.926-0.692C235.271,252.245,234.997,252.342,234.982,252.298z
						"/>
				</g>
				<g>
					<path style="fill:#263238;" d="M233.232,231.166c-0.013-0.018,0.245-0.234,0.822-0.374c0.566-0.141,1.484-0.14,2.44,0.359
						c0.47,0.251,0.951,0.624,1.31,1.16c0.356,0.534,0.577,1.226,0.541,1.95c-0.044,1.423-0.987,3.027-2.637,3.547
						c-1.662,0.474-3.327-0.324-4.18-1.457c-0.447-0.567-0.674-1.25-0.724-1.884c-0.044-0.638,0.084-1.228,0.28-1.722
						c0.403-0.996,1.071-1.605,1.57-1.902c0.507-0.302,0.836-0.348,0.842-0.324c0.017,0.043-0.284,0.155-0.727,0.491
						c-0.438,0.33-1.014,0.938-1.34,1.864c-0.331,0.903-0.339,2.189,0.478,3.183c0.765,0.982,2.256,1.659,3.652,1.252
						c1.386-0.427,2.251-1.831,2.308-3.069c0.097-1.284-0.713-2.301-1.55-2.767c-0.845-0.493-1.686-0.555-2.226-0.481
						C233.54,231.062,233.253,231.21,233.232,231.166z"/>
				</g>
				<g>
					<path style="fill:#263238;" d="M227.907,311.882c-0.003-0.009,0.082-0.048,0.251-0.116c0.197-0.076,0.443-0.171,0.75-0.29
						c0.669-0.226,1.621-0.648,2.835-1.21c2.39-1.185,5.739-3.221,9.196-6.539c3.485-3.281,7.066-7.759,10.529-13.062
						c3.479-5.299,6.958-11.349,10.26-17.878c6.61-13.07,11.291-25.508,14.569-34.522c1.639-4.511,2.909-8.183,3.798-10.716
						c0.435-1.237,0.779-2.213,1.026-2.916c0.114-0.308,0.206-0.556,0.279-0.754c0.066-0.169,0.104-0.254,0.112-0.251
						c0.009,0.003-0.012,0.094-0.062,0.268c-0.06,0.202-0.136,0.456-0.23,0.771c-0.225,0.711-0.538,1.697-0.934,2.948
						c-0.831,2.554-2.048,6.244-3.643,10.775c-3.191,9.052-7.824,21.531-14.451,34.634c-3.31,6.544-6.812,12.606-10.324,17.906
						c-3.498,5.309-7.134,9.795-10.678,13.067c-3.516,3.31-6.928,5.318-9.36,6.453c-1.236,0.538-2.204,0.931-2.887,1.126
						c-0.314,0.099-0.567,0.178-0.768,0.241C228,311.869,227.91,311.891,227.907,311.882z"/>
				</g>
				<path style="fill:#FAFAFA;" d="M262.338,291.912c0.428,0,10.377-0.685,10.377-0.685s-4.107,7.262-8.385,9.972h-8.706
					L262.338,291.912z"/>
				<g>
					<path style="fill:#263238;" d="M226.167,333.87c-0.01-0.015,0.186-0.164,0.568-0.432c0.426-0.294,0.984-0.68,1.678-1.159
						c1.452-1.013,3.54-2.497,6.051-4.424c5.041-3.83,11.656-9.557,18.772-16.098c3.569-3.263,6.988-6.348,9.944-9.305
						c2.964-2.95,5.443-5.788,7.331-8.32c1.9-2.524,3.195-4.738,4.013-6.303c0.434-0.771,0.705-1.402,0.92-1.816
						c0.208-0.417,0.325-0.634,0.342-0.627c0.017,0.007-0.068,0.237-0.246,0.669c-0.184,0.429-0.427,1.077-0.835,1.866
						c-0.766,1.601-2.022,3.86-3.897,6.43c-1.862,2.577-4.331,5.46-7.288,8.44c-2.95,2.989-6.365,6.089-9.933,9.351
						c-7.119,6.543-13.791,12.243-18.901,16.007c-2.545,1.894-4.671,3.336-6.16,4.299c-0.744,0.483-1.335,0.836-1.734,1.079
						C226.391,333.766,226.177,333.885,226.167,333.87z"/>
				</g>
				<g>
					<path style="fill:#263238;" d="M198.129,444.965c-0.007-0.005,0.035-0.084,0.124-0.234c0.108-0.174,0.243-0.391,0.409-0.659
						c0.366-0.576,0.927-1.411,1.676-2.468c1.505-2.109,3.824-5.063,6.883-8.54c6.157-6.916,14.786-16.343,24.293-26.783
						c9.531-10.4,18.156-19.812,24.433-26.661c3.124-3.371,5.661-6.11,7.448-8.039c0.866-0.918,1.549-1.643,2.044-2.168
						c0.22-0.226,0.398-0.408,0.542-0.555c0.124-0.123,0.191-0.183,0.198-0.177c0.007,0.006-0.047,0.078-0.158,0.213
						c-0.133,0.156-0.299,0.35-0.503,0.59c-0.478,0.541-1.137,1.288-1.972,2.234c-1.758,1.956-4.254,4.732-7.326,8.15
						c-6.248,6.875-14.834,16.324-24.32,26.763c-9.517,10.404-18.133,19.822-24.402,26.676c-3.089,3.44-5.443,6.349-6.995,8.416
						c-0.773,1.036-1.359,1.851-1.753,2.406c-0.184,0.256-0.332,0.463-0.451,0.63C198.194,444.901,198.137,444.97,198.129,444.965z"
						/>
				</g>
			</g>
			<path style="fill:#E8505B;" d="M284.839,210.954c0.859,1.288,20.185,3.436,24.909,8.16c4.724,4.724,51.965,40.799,51.965,40.799
				l-33.651,45.386l-21.745-4.787L284.839,210.954z"/>
			<polygon style="opacity:0.4;" points="356.024,255.557 318.254,303.14 328.062,305.299 361.713,259.913 			"/>
			<g>
				<path style="fill:#263238;" d="M295.135,258.199c-0.035,0.008-0.172-0.555-0.391-1.581c-0.117-0.512-0.241-1.142-0.331-1.882
					c-0.096-0.739-0.244-1.577-0.293-2.516c-0.078-0.936-0.154-1.962-0.147-3.068c-0.043-1.105,0.031-2.285,0.086-3.526
					c0.185-2.478,0.567-5.192,1.246-7.981c0.708-2.783,1.642-5.36,2.641-7.636c0.534-1.123,1.021-2.199,1.577-3.155
					c0.512-0.98,1.06-1.851,1.568-2.641c0.482-0.806,1.006-1.478,1.438-2.085c0.426-0.612,0.831-1.11,1.174-1.507
					c0.674-0.804,1.059-1.236,1.086-1.213c0.028,0.023-0.304,0.499-0.926,1.337c-0.317,0.415-0.696,0.927-1.097,1.551
					c-0.406,0.619-0.905,1.3-1.363,2.112c-0.484,0.796-1.009,1.67-1.499,2.65c-0.535,0.956-1.002,2.029-1.519,3.145
					c-0.964,2.263-1.874,4.816-2.574,7.568c-0.672,2.759-1.064,5.44-1.273,7.89c-0.067,1.228-0.157,2.395-0.132,3.49
					c-0.026,1.095,0.028,2.113,0.082,3.043c0.024,0.932,0.146,1.767,0.214,2.505c0.061,0.739,0.156,1.37,0.242,1.885
					C295.1,257.616,295.17,258.192,295.135,258.199z"/>
			</g>
			<g>
				<path style="fill:#263238;" d="M310.255,295.481c-0.133,0.056-2.003-4.075-4.178-9.226c-2.175-5.152-3.831-9.373-3.698-9.429
					c0.132-0.056,2.003,4.074,4.178,9.227C308.731,291.203,310.387,295.425,310.255,295.481z"/>
			</g>
			<g>
				<path style="fill:#263238;" d="M161.699,262.537c-0.08,0.044-0.889-1.444-2.418-3.696c-1.525-2.253-3.842-5.232-6.817-8.127
					c-2.984-2.888-6.031-5.116-8.328-6.572c-2.298-1.461-3.808-2.225-3.767-2.306c0.016-0.032,0.406,0.132,1.1,0.457
					c0.697,0.318,1.678,0.839,2.86,1.535c2.365,1.387,5.482,3.592,8.498,6.512c3.008,2.926,5.305,5.976,6.762,8.298
					c0.731,1.16,1.281,2.125,1.62,2.813C161.555,262.135,161.731,262.52,161.699,262.537z"/>
			</g>
			<polygon style="opacity:0.4;" points="103.934,310.967 106.256,305.299 170.165,322.697 167.631,329.808 			"/>
			<path style="fill:#FAFAFA;" d="M274.518,288.556h24.329V298.6l-31.123-0.199C267.724,298.401,272.534,292.574,274.518,288.556z"
				/>
			<g style="opacity:0.2;">
				<path d="M187.743,216.202c0.88,7.803,1.835,15.847,5.693,22.687c3.858,6.84,11.412,12.228,19.181,11.081
					c5.184-0.765,9.574-4.233,13.104-8.106c3.53-3.873,6.485-8.277,10.337-11.829c2.417,2.419,4.86,4.861,7.758,6.675
					s6.333,2.974,9.728,2.566c3.395-0.409,5.266-1.752,6.337-4.999c-3.624,1.125-5.617,0.957-9.219,0.258
					c-3.811-0.74-7.509-2.335-10.916-5.017c-2.122-1.67-2.885-4.178-5.58-4.023c-2.49,0.144-4.44,2.115-6.081,3.993
					c-2.51,2.872-5.686,5.994-8.674,8.364c-2.988,2.37-5.904,3.971-9.717,3.887c-6.294-0.137-11.446-5.078-14.919-10.328
					c-3.194-4.828-5.568-10.197-6.991-15.808"/>
			</g>
			<g>
				<path style="fill:#263238;" d="M261.379,206.471c0.018-0.002,0.054,0.19,0.106,0.557c0.048,0.368,0.129,0.909,0.195,1.611
					c0.149,1.401,0.3,3.436,0.359,5.957c0.131,5.034-0.249,12.042-1.869,19.578c-0.011,0.055-0.023,0.109-0.033,0.16l-0.033,0.158
					l-0.156,0.039c-3.783,0.939-7.571,0.606-10.774-0.284c-3.223-0.888-5.931-2.28-7.98-3.74c-2.051-1.46-3.509-2.913-4.361-4.03
					c-0.469-0.524-0.728-1.012-0.945-1.309c-0.203-0.308-0.301-0.474-0.286-0.484c0.113-0.115,1.653,2.722,5.801,5.521
					c2.045,1.4,4.727,2.735,7.896,3.58c3.15,0.85,6.853,1.153,10.517,0.243l-0.188,0.197c0.01-0.05,0.021-0.104,0.033-0.158
					c1.611-7.489,2.047-14.449,2.01-19.464c-0.011-2.51-0.107-4.542-0.193-5.945c-0.039-0.655-0.071-1.189-0.097-1.616
					C261.363,206.668,261.362,206.473,261.379,206.471z"/>
			</g>
			<g>
				<path style="fill:#263238;" d="M231.005,226.202c0.015,0.009-0.095,0.215-0.32,0.599c-0.228,0.382-0.592,0.93-1.109,1.599
					c-1.024,1.347-2.694,3.146-4.917,5.187c-1.11,1.022-2.357,2.107-3.707,3.254c-0.679,0.572-1.362,1.17-2.117,1.764
					c-0.761,0.577-1.587,1.114-2.475,1.594c-1.773,0.955-3.826,1.656-6.032,1.832c-2.201,0.194-4.558-0.293-6.596-1.458
					c-2.052-1.149-3.709-2.75-5.173-4.357c-1.453-1.624-2.754-3.277-3.893-4.922c-2.291-3.285-3.929-6.515-5.095-9.301
					c-1.151-2.796-1.838-5.149-2.242-6.787c-0.208-0.818-0.336-1.461-0.416-1.898c-0.082-0.436-0.117-0.667-0.099-0.671
					c0.018-0.004,0.087,0.22,0.202,0.648c0.112,0.429,0.272,1.062,0.509,1.868c0.462,1.615,1.199,3.937,2.385,6.695
					c1.201,2.748,2.859,5.932,5.149,9.17c1.139,1.622,2.436,3.253,3.878,4.854c1.449,1.582,3.075,3.141,5.049,4.245
					c1.96,1.118,4.187,1.581,6.305,1.404c2.119-0.163,4.113-0.829,5.844-1.747c0.867-0.461,1.676-0.979,2.423-1.535
					c0.733-0.567,1.434-1.168,2.116-1.73c1.361-1.131,2.617-2.196,3.738-3.197c2.245-1.997,3.942-3.744,5.006-5.041
					c0.537-0.645,0.924-1.17,1.18-1.53C230.849,226.38,230.989,226.193,231.005,226.202z"/>
			</g>
		</g>
		<g>
			<g>
				<g>
					<path style="fill:#B78876;" d="M209.464,341.097l7.705-11.234c0,0,5.299-18.427,4.58-20.996
						c-0.719-2.569-3.062-12.181-2.508-12.294c0.554-0.113,6.324-2.263,9.451,5.441c1.948,4.798,2.588,11.115,2.794,15.198
						c0.108,2.148,2.092,3.686,4.199,3.255c5.331-1.092,14.199-2.763,16.305-2.259c3.06,0.733,5.799,4.636,6.065,5.94
						c0.267,1.304-1.846,4.258-1.846,4.258s2.601,1.331,3.4,3.341c0.108,0.272,0.201,0.54,0.281,0.799
						c0.506,1.639,0.084,3.421-1.072,4.689l-0.815,0.894c0,0,3.243,0.889,3.645,2.748c0.402,1.858-0.111,4.098-0.111,4.098
						l-3.044,3.145c0,0,1.422,1.262,1.579,2.976c0.156,1.714-4.411,5.947-4.411,5.947l-19.609,7.029l-7.779,1.984L209.464,341.097z"
						/>
					<g>
						<path style="fill:#AA6550;" d="M256.267,328.422c0.021,0.147-3.039,0.702-6.793,1.469c-3.756,0.762-6.79,1.447-6.827,1.303
							c-0.018-0.068,0.719-0.329,1.933-0.67c1.213-0.342,2.905-0.759,4.79-1.143c1.885-0.383,3.605-0.661,4.855-0.82
							C255.476,328.4,256.256,328.352,256.267,328.422z"/>
					</g>
					<g>
						<path style="fill:#AA6550;" d="M258.06,338.119c0.042,0.138-2.281,0.968-5.188,1.855c-2.908,0.887-5.298,1.495-5.34,1.357
							c-0.042-0.138,2.281-0.968,5.188-1.855C255.627,338.59,258.018,337.982,258.06,338.119z"/>
					</g>
					<g>
						<path style="fill:#AA6550;" d="M259.23,347.69c0.058,0.132-2.41,1.338-5.511,2.694c-3.102,1.357-5.662,2.349-5.72,2.217
							c-0.058-0.132,2.409-1.338,5.511-2.694C256.611,348.55,259.172,347.558,259.23,347.69z"/>
					</g>
				</g>
				<path style="fill:#B78876;" d="M164.278,410.562l72.117-48.381l-18.192-32.959l-65.825,33.851l7.468-35.569l-44.67-13.213
					l-11.145,60.858l0,0c-1.725,27.079,19.992,48.943,46.178,41.831h0C155.216,415.622,159.969,413.453,164.278,410.562z"/>
			</g>
			<g>
				<path style="fill:#AA6550;" d="M142.852,382.171c-0.032,0.006-0.132-0.313-0.248-0.907c-0.117-0.593-0.228-1.465-0.25-2.55
					c-0.056-2.158,0.367-5.223,1.859-8.212c1.491-2.991,3.686-5.173,5.443-6.426c0.88-0.635,1.643-1.071,2.188-1.334
					c0.544-0.264,0.86-0.376,0.874-0.347c0.044,0.083-1.167,0.655-2.839,1.975c-1.667,1.304-3.753,3.463-5.2,6.365
					c-1.447,2.901-1.918,5.865-1.957,7.981C142.674,380.845,142.946,382.156,142.852,382.171z"/>
			</g>
		</g>
		<g>
			<g>
				<path style="fill:#B78876;" d="M328.062,305.299c0.451-0.615,51.363,30.398,51.363,30.398l16.316,74.353l23.488,8.619
					c0,0,7.333-82.74,1.75-95.624c-5.583-12.884-62.146-59.212-62.146-59.212L328.062,305.299z"/>
				<g>
					<path style="fill:#AA6550;" d="M390.544,329.993c0.107,0.066-1.545,2.328-4.415,4.159c-2.857,1.854-5.6,2.419-5.615,2.294
						c-0.051-0.155,2.558-0.928,5.334-2.732C388.639,331.937,390.424,329.883,390.544,329.993z"/>
				</g>
			</g>
			<g>
				<polygon style="fill:#263238;" points="266.835,305.461 270.819,376.818 352.18,371.319 349.718,318.199 337.874,302.254 				
					"/>
				<path style="fill:#E8505B;" d="M248.335,378.406c0.247,1.371,7.153,66.002,7.153,66.002l121.089-8.422l20.495-2.742
					l-9.45-60.188l-14.477-3.464L248.335,378.406z"/>
				<path style="opacity:0.4;" d="M373.146,369.593l-124.811,8.813c0.247,1.371,7.153,66.002,7.153,66.002l126.068-8.768
					L373.146,369.593z"/>
				<polygon style="fill:#455A64;" points="339.983,372.144 270.819,376.818 266.835,305.461 337.874,302.254 				"/>
				<polygon style="fill:#263238;" points="292.621,304.297 294.079,326.288 297.779,324.171 299.834,326.288 302.379,324.171 
					306.317,326.288 306.317,303.678 				"/>
				<g>
					<polygon style="fill:#E8505B;" points="321.533,373.639 316.798,320.083 363.031,332.825 367.488,369.789 					"/>
					<g>
						<path style="fill:#263238;" d="M363.031,332.825c0.011,0.01-0.087,0.141-0.287,0.384c-0.234,0.276-0.529,0.624-0.893,1.053
							c-0.833,0.951-1.979,2.26-3.399,3.881c-2.97,3.33-7.077,7.935-11.815,13.249l-0.18,0.202l-0.188-0.197
							c-1.974-2.069-4.098-4.294-6.293-6.595c-6.414-6.779-12.217-12.913-16.469-17.406c-2.058-2.211-3.737-4.016-4.947-5.316
							c-0.547-0.604-0.987-1.09-1.326-1.463c-0.299-0.339-0.45-0.522-0.437-0.535c0.013-0.012,0.189,0.147,0.513,0.462
							c0.357,0.357,0.82,0.82,1.397,1.396c1.239,1.272,2.96,3.038,5.067,5.202c4.28,4.466,10.123,10.563,16.579,17.301
							c2.19,2.305,4.309,4.535,6.279,6.608l-0.368,0.005c4.793-5.264,8.948-9.827,11.952-13.125
							c1.465-1.581,2.648-2.856,3.508-3.783c0.389-0.406,0.704-0.736,0.954-0.997C362.9,332.927,363.02,332.815,363.031,332.825z"/>
					</g>
					<g>
						<path style="fill:#263238;" d="M337.11,342.749c0.126,0.069-3.169,6.39-7.36,14.118c-4.192,7.73-7.692,13.94-7.818,13.871
							c-0.126-0.069,3.168-6.389,7.36-14.119C333.483,348.891,336.984,342.68,337.11,342.749z"/>
					</g>
					<g>
						<path style="fill:#263238;" d="M366.414,369.789c-0.123,0.074-3.328-5.046-7.157-11.434c-3.83-6.39-6.834-11.629-6.711-11.703
							c0.123-0.074,3.327,5.045,7.157,11.435C363.532,364.475,366.537,369.715,366.414,369.789z"/>
					</g>
				</g>
				<g>
					<polygon style="fill:#E8505B;" points="346.355,371.55 343.34,337.444 372.782,345.559 375.62,369.098 					"/>
					<polygon style="opacity:0.4;fill:#FFFFFF;" points="346.355,371.55 343.34,337.444 372.782,345.559 375.62,369.098 					"/>
					<g>
						<path style="fill:#263238;" d="M372.782,345.559c0.022,0.02-0.235,0.348-0.728,0.935c-0.555,0.644-1.272,1.477-2.145,2.49
							c-1.92,2.165-4.515,5.092-7.499,8.459l-0.18,0.202l-0.189-0.197c-1.259-1.318-2.612-2.734-4.01-4.197
							c-4.11-4.316-7.809-8.243-10.468-11.104c-1.276-1.389-2.33-2.537-3.129-3.406c-0.73-0.812-1.122-1.273-1.096-1.298
							c0.026-0.025,0.467,0.389,1.243,1.158c0.829,0.84,1.924,1.95,3.249,3.292c2.727,2.795,6.468,6.682,10.578,10.998
							c1.393,1.468,2.741,2.888,3.996,4.21l-0.368,0.005c3.039-3.318,5.682-6.202,7.636-8.336c0.917-0.973,1.671-1.773,2.254-2.391
							C372.46,345.829,372.76,345.539,372.782,345.559z"/>
					</g>
					<g>
						<path style="fill:#263238;" d="M356.275,351.878c0.127,0.068-1.935,4.115-4.604,9.036c-2.67,4.923-4.935,8.857-5.062,8.788
							c-0.126-0.069,1.935-4.114,4.604-9.036C353.882,355.744,356.149,351.81,356.275,351.878z"/>
					</g>
					<g>
						<path style="fill:#263238;" d="M374.936,369.098c-0.123,0.074-2.2-3.165-4.639-7.233c-2.439-4.069-4.316-7.427-4.192-7.501
							c0.123-0.074,2.2,3.164,4.639,7.233C373.182,365.665,375.059,369.024,374.936,369.098z"/>
					</g>
				</g>
				<polygon style="fill:#FFFFFF;" points="365.121,344.117 365.121,346.861 369.421,347.36 369.646,345.266 				"/>
				<path style="fill:#FFFFFF;" d="M349.945,330.207c0,0.293,0,4.01,0,4.01l8.116,1.339l0.448-3.052L349.945,330.207z"/>
				<polygon style="fill:#E8505B;" points="318.254,393.585 317.854,373.639 301.675,374.733 303.409,394.988 				"/>
				<g>
					<g>
						
							<rect x="344.876" y="405.323" transform="matrix(0.9955 -0.0944 0.0944 0.9955 -37.794 35.7009)" style="fill:#FAFAFA;" width="27.266" height="24.12"/>
						<g>
							<path style="fill:#263238;" d="M373.219,428.103c-0.009-0.007-0.032-0.164-0.068-0.46c-0.038-0.329-0.087-0.759-0.149-1.299
								c-0.125-1.168-0.3-2.811-0.521-4.886c-0.428-4.218-1.032-10.181-1.759-17.346l0.24,0.199
								c-7.82,0.753-17.145,1.651-27.138,2.613c-0.054,0.061,0.442-0.535,0.233-0.28l0.001,0.006l0.001,0.013l0.002,0.026
								l0.005,0.051l0.01,0.102l0.019,0.204l0.039,0.408l0.077,0.814c0.051,0.541,0.102,1.081,0.153,1.618
								c0.101,1.074,0.202,2.139,0.301,3.194c0.198,2.109,0.392,4.176,0.581,6.191c0.374,4.028,0.728,7.849,1.056,11.384
								l-0.25-0.207c8.05-0.715,14.802-1.315,19.588-1.741c2.361-0.198,4.236-0.355,5.564-0.467c0.62-0.048,1.112-0.085,1.485-0.114
								C373.03,428.103,373.21,428.095,373.219,428.103c0.01,0.008-0.152,0.032-0.474,0.071c-0.36,0.041-0.836,0.095-1.436,0.163
								c-1.313,0.139-3.166,0.335-5.5,0.582c-4.816,0.485-11.611,1.169-19.713,1.985l-0.228,0.023l-0.022-0.23
								c-0.342-3.534-0.712-7.353-1.102-11.38c-0.193-2.015-0.391-4.081-0.593-6.189c-0.1-1.054-0.202-2.119-0.304-3.193
								c-0.051-0.537-0.102-1.076-0.154-1.618l-0.077-0.814l-0.039-0.408l-0.019-0.204l-0.01-0.102l-0.005-0.051l-0.002-0.026
								l-0.001-0.013l-0.001-0.006c-0.21,0.251,0.285-0.35,0.237-0.288c9.996-0.933,19.323-1.803,27.146-2.534l0.221-0.021
								l0.019,0.219c0.639,7.231,1.17,13.25,1.546,17.507c0.171,2.058,0.306,3.688,0.402,4.847c0.039,0.525,0.07,0.942,0.094,1.262
								C373.223,427.968,373.228,428.11,373.219,428.103z"/>
						</g>
					</g>
					<g>
						<path style="fill:#263238;" d="M368.822,409.844c0.015,0.143-4.73,0.76-10.597,1.378c-5.869,0.618-10.638,1.003-10.653,0.86
							c-0.015-0.143,4.729-0.76,10.598-1.378C364.037,410.086,368.807,409.702,368.822,409.844z"/>
					</g>
					<g>
						<path style="fill:#263238;" d="M368.665,413.923c0.013,0.067-1.098,0.359-2.918,0.722c-1.819,0.363-4.35,0.784-7.162,1.115
							c-2.813,0.329-5.373,0.506-7.227,0.573c-1.854,0.068-3.002,0.041-3.005-0.027c-0.003-0.075,1.139-0.178,2.982-0.34
							c1.843-0.161,4.387-0.395,7.189-0.723c2.801-0.329,5.33-0.691,7.16-0.96C367.515,414.013,368.65,413.849,368.665,413.923z"/>
					</g>
					<g>
						<path style="fill:#263238;" d="M369.81,422.844c0.013,0.067-1.098,0.359-2.917,0.722c-1.819,0.363-4.35,0.784-7.162,1.115
							c-2.814,0.329-5.373,0.506-7.227,0.573c-1.854,0.068-3.003,0.041-3.005-0.027c-0.003-0.075,1.139-0.178,2.982-0.34
							c1.843-0.161,4.387-0.395,7.189-0.723c2.801-0.33,5.33-0.691,7.16-0.96C368.661,422.934,369.796,422.77,369.81,422.844z"/>
					</g>
					<g>
						<path style="fill:#263238;" d="M368.442,418.273c0.02,0.142-4.411,0.894-9.896,1.678c-5.487,0.784-9.95,1.305-9.971,1.162
							c-0.02-0.142,4.41-0.893,9.897-1.678C363.958,418.651,368.422,418.131,368.442,418.273z"/>
					</g>
				</g>
			</g>
			<g>
				<path style="fill:#B78876;" d="M392.41,455.458c0,0,22.349-14.785,24.068-22.349c1.719-7.564,2.751-14.441,2.751-14.441
					l-23.877-9.89l2.369,8.604c0,0-8.563,5.091-9.436,11.257c-0.583,4.114-11.65,11.146-11.65,11.146l0,0
					c-1.88-2.27-4.74-3.493-7.68-3.285l-9.3,0.657l6.281,14.176L392.41,455.458z"/>
				<g>
					<path style="fill:#AA6550;" d="M401.143,435.191c0.011,0.03-0.357,0.209-1.057,0.429c-0.696,0.232-1.736,0.461-2.96,0.863
						c-1.238,0.377-2.538,1.174-3.88,2.253c-1.332,1.07-2.894,2.27-4.776,3.033c-3.75,1.615-7.601,1.507-10.137,0.85
						c-0.633-0.165-1.231-0.307-1.695-0.629c-0.473-0.294-0.718-0.841-0.618-1.238c0.063-0.397,0.307-0.647,0.502-0.721
						c0.199-0.074,0.309-0.029,0.306-0.018c0.001,0.024-0.107,0.021-0.259,0.112c-0.148,0.089-0.323,0.316-0.348,0.653
						c-0.049,0.336,0.153,0.721,0.576,0.969c0.41,0.257,0.988,0.375,1.618,0.514c2.498,0.551,6.222,0.593,9.851-0.97
						c1.826-0.742,3.32-1.872,4.688-2.934c1.36-1.064,2.773-1.884,4.06-2.223c1.271-0.366,2.312-0.537,3.019-0.708
						C400.743,435.266,401.13,435.154,401.143,435.191z"/>
				</g>
				<g>
					<path style="fill:#AA6550;" d="M385.661,446.661c-0.044,0.074-1.148-0.582-3.05-1.367c-1.897-0.783-4.633-1.635-7.752-1.93
						c-0.782-0.084-1.551-0.107-2.291-0.124l-0.141-0.003l-0.073-0.114c-1.385-2.176-2.959-3.827-4.159-4.908
						c-1.202-1.086-2.006-1.648-1.964-1.708c0.017-0.025,0.238,0.086,0.62,0.325c0.382,0.24,0.922,0.615,1.56,1.132
						c1.276,1.028,2.934,2.67,4.372,4.884l-0.213-0.117c0.756,0.01,1.54,0.03,2.339,0.116c3.185,0.301,5.964,1.229,7.849,2.11
						c0.949,0.435,1.677,0.863,2.174,1.165C385.421,446.439,385.68,446.631,385.661,446.661z"/>
				</g>
				<g>
					<path style="fill:#AA6550;" d="M391.699,442.597c0.045,0.146-1.514,0.709-3.27,1.715c-1.764,0.994-3.046,2.044-3.148,1.93
						c-0.096-0.094,1.067-1.353,2.891-2.383C389.99,442.82,391.667,442.467,391.699,442.597z"/>
				</g>
				<g>
					<path style="fill:#AA6550;" d="M403.805,416.014c-0.02,0.156-1.551-0.033-3.339,0.447c-1.795,0.454-3.038,1.367-3.132,1.241
						c-0.099-0.087,1.078-1.253,3-1.745C402.252,415.447,403.849,415.889,403.805,416.014z"/>
				</g>
			</g>
		</g>
	</g>
</g>
<g id="Plant">
	<g>
		<g>
			<g>
				<g>
					<path style="fill:#E8505B;" d="M77.766,407.473c2.946,3.498,7.914,1.809,10.065-0.679c2.151-2.488,2.851-5.878,3.476-9.107
						c1.427-7.378,2.84-15.11,0.646-22.297c-0.656-2.149-1.67-4.26-3.354-5.747c-1.684-1.487-4.137-2.242-6.249-1.477
						c-2.5,0.905-3.867,3.555-4.804,6.043c-2.754,7.314-3.85,15.248-3.181,23.035C74.678,400.88,75.447,404.655,77.766,407.473"/>
				</g>
			</g>
		</g>
		<g style="opacity:0.2;">
			<g>
				<g>
					<path d="M77.766,407.473c2.946,3.498,7.914,1.809,10.065-0.679c2.151-2.488,2.851-5.878,3.476-9.107
						c1.427-7.378,2.84-15.11,0.646-22.297c-0.656-2.149-1.67-4.26-3.354-5.747c-1.684-1.487-4.137-2.242-6.249-1.477
						c-2.5,0.905-3.867,3.555-4.804,6.043c-2.754,7.314-3.85,15.248-3.181,23.035C74.678,400.88,75.447,404.655,77.766,407.473"/>
				</g>
			</g>
		</g>
		<g>
			<g>
				<g>
					<path style="fill:#E8505B;" d="M89.244,425.496c4.076-2.586,9.082-3.323,13.895-2.962c2.586,0.194,5.311,0.719,7.216,2.478
						c1.905,1.759,2.535,5.099,0.691,6.922c-1.098,1.085-2.738,1.381-4.276,1.501c-3.718,0.288-7.896,0.003-10.663,2.502
						c-1.578,1.426-2.516,3.646-4.484,4.453c-1.925,0.79-4.264-0.179-5.473-1.872c-1.209-1.693-1.444-3.924-1.134-5.981
						C85.015,432.537,85.138,428.101,89.244,425.496z"/>
				</g>
			</g>
		</g>
		<g>
			<g>
				<g>
					<path style="fill:#E8505B;" d="M71.07,413.468c2.536-3.62,2.635-8.579,0.996-12.684c-1.639-4.105-4.812-7.438-8.36-10.074
						c-4.16-3.09-8.929-5.358-13.951-6.635c-1.977-0.503-4.046-0.854-6.051-0.48c-2.005,0.374-3.949,1.59-4.731,3.473
						c-1.157,2.785,0.468,5.892,2.15,8.395c2.962,4.41,6.272,8.586,9.889,12.477c2.91,3.13,6.194,6.181,10.306,7.346
						c4.112,1.165,8.226,0.617,10.088-2.329"/>
				</g>
			</g>
		</g>
		<g>
			<g>
				<g>
					<g>
						<path style="fill:#263238;" d="M82.619,463.78c0.049-0.001,0.075-0.613,0.085-1.717c0.01-1.245,0.022-2.808,0.037-4.668
							c0.042-1.967,0.119-4.309,0.435-6.881c0.314-2.565,0.915-5.369,1.751-8.232c0.877-2.851,2.022-5.472,3.444-7.614
							c1.409-2.15,3.126-3.768,4.788-4.762c1.654-1.01,3.175-1.496,4.234-1.746c1.072-0.207,1.67-0.347,1.666-0.395
							c-0.004-0.048-0.612-0.002-1.72,0.127c-1.095,0.172-2.686,0.595-4.436,1.588c-1.757,0.975-3.585,2.626-5.068,4.824
							c-1.497,2.191-2.688,4.872-3.58,7.773c-0.851,2.914-1.437,5.744-1.722,8.361c-0.284,2.613-0.31,4.977-0.288,6.954
							c0.029,1.978,0.115,3.574,0.187,4.677C82.504,463.173,82.571,463.781,82.619,463.78z"/>
					</g>
				</g>
			</g>
		</g>
		<g>
			<g>
				<g>
					<g>
						<path style="fill:#263238;" d="M82.62,460.19c0.024-0.003,0.015-0.276-0.025-0.791c-0.054-0.591-0.123-1.335-0.207-2.249
							c-0.18-1.952-0.431-4.778-0.639-8.276c-0.451-6.994-0.711-16.681-0.496-27.373c0.223-10.696,0.921-20.362,1.723-27.324
							c0.181-1.743,0.379-3.315,0.575-4.693c0.181-1.38,0.335-2.57,0.499-3.536c0.134-0.908,0.243-1.647,0.33-2.234
							c0.068-0.512,0.092-0.784,0.068-0.789c-0.024-0.004-0.095,0.258-0.208,0.762c-0.121,0.582-0.273,1.314-0.46,2.214
							c-0.206,0.961-0.399,2.147-0.618,3.525c-0.233,1.376-0.467,2.948-0.679,4.691c-0.93,6.964-1.709,16.65-1.932,27.369
							c-0.215,10.715,0.124,20.423,0.703,27.423c0.271,3.502,0.598,6.327,0.862,8.273c0.138,0.909,0.249,1.649,0.338,2.236
							C82.539,459.928,82.596,460.194,82.62,460.19z"/>
					</g>
				</g>
			</g>
		</g>
		<g>
			<g>
				<g>
					<g>
						<path style="fill:#263238;" d="M81.001,441.552c0.048-0.006-0.034-0.84-0.226-2.349c-0.221-1.502-0.624-3.667-1.289-6.303
							c-0.689-2.628-1.602-5.739-2.9-9.093c-1.25-3.37-2.877-6.985-4.86-10.631c-3.9-7.346-8.83-13.197-12.978-16.722
							c-0.984-0.946-2.044-1.598-2.903-2.252c-0.443-0.311-0.837-0.625-1.232-0.867c-0.395-0.223-0.763-0.431-1.104-0.624
							c-1.328-0.744-2.069-1.133-2.092-1.09c-0.099,0.163,2.971,1.618,7.003,5.207c4.016,3.581,8.82,9.4,12.688,16.684
							c1.966,3.615,3.599,7.194,4.873,10.528c1.322,3.318,2.278,6.393,3.024,8.989c0.722,2.604,1.196,4.74,1.499,6.221
							C80.779,440.737,80.953,441.559,81.001,441.552z"/>
					</g>
				</g>
			</g>
		</g>
	</g>
</g>
</svg>
